<svg width="18" height="18" viewBox="0 0 18 18" fill="none" xmlns="http://www.w3.org/2000/svg">
<path d="M13.5 11.8125H14.625V14.625H13.5V11.8125ZM11.25 9H12.375V14.625H11.25V9ZM6.1875 14.625C5.44185 14.6241 4.727 14.3275 4.19975 13.8003C3.6725 13.273 3.37589 12.5581 3.375 11.8125H4.5C4.5 12.1463 4.59897 12.4725 4.7844 12.75C4.96982 13.0275 5.23337 13.2438 5.54172 13.3715C5.85007 13.4993 6.18937 13.5327 6.51671 13.4676C6.84406 13.4025 7.14474 13.2417 7.38074 13.0057C7.61674 12.7697 7.77746 12.4691 7.84258 12.1417C7.90769 11.8144 7.87427 11.4751 7.74655 11.1667C7.61882 10.8584 7.40253 10.5948 7.12502 10.4094C6.84752 10.224 6.52126 10.125 6.1875 10.125V9C6.93342 9 7.64879 9.29632 8.17624 9.82376C8.70368 10.3512 9 11.0666 9 11.8125C9 12.5584 8.70368 13.2738 8.17624 13.8012C7.64879 14.3287 6.93342 14.625 6.1875 14.625Z" fill="#94A3B8"/>
<path d="M15.75 1.125H2.25C1.95172 1.1253 1.66575 1.24392 1.45483 1.45483C1.24392 1.66575 1.1253 1.95172 1.125 2.25V15.75C1.1253 16.0483 1.24392 16.3343 1.45483 16.5452C1.66575 16.7561 1.95172 16.8747 2.25 16.875H15.75C16.0482 16.8746 16.3341 16.7559 16.545 16.545C16.7559 16.3341 16.8746 16.0482 16.875 15.75V2.25C16.8747 1.95172 16.7561 1.66575 16.5452 1.45483C16.3343 1.24392 16.0483 1.1253 15.75 1.125ZM15.75 6.1875H7.875V2.25H15.75V6.1875ZM6.75 2.25V6.1875H2.25V2.25H6.75ZM2.25 15.75V7.3125H15.75L15.7511 15.75H2.25Z" fill="#94A3B8"/>
</svg>
