<svg width="391" height="389" viewBox="0 0 391 389" fill="none" xmlns="http://www.w3.org/2000/svg">
<g clip-path="url(#clip0_113_930)">
<path d="M352.483 218.56L133.38 345.078C130.233 346.877 126.786 347.776 123.339 347.776C119.892 347.776 116.445 346.877 113.298 345.078L34.9186 299.807L22.4798 307.003C17.2345 310.001 17.2345 317.646 22.4798 320.644L113.298 373.11C116.445 374.909 119.892 375.808 123.339 375.808C126.786 375.808 130.233 374.909 133.38 373.11L364.922 239.396C370.167 236.398 370.167 228.753 364.922 225.755L352.483 218.56Z" fill="#1E293B"/>
<path d="M353.382 191.127L273.204 144.807C267.659 141.509 260.616 141.509 255.071 144.807L34.0194 272.375H18.5833V285.866V286.166C18.7331 288.714 19.9321 291.263 22.4798 292.612L113.298 345.078C119.443 348.676 127.086 348.676 133.23 345.078L364.922 211.364C367.47 209.865 368.818 207.467 368.818 204.918V191.127H353.382Z" fill="#CCDEEC"/>
<path d="M22.6296 265.629L255.071 131.316C260.616 128.018 267.659 128.018 273.204 131.316L364.922 184.232C370.167 187.23 370.167 194.875 364.922 197.873L133.38 331.587C127.236 335.185 119.592 335.185 113.448 331.587L22.6296 279.121C17.3844 276.123 17.3844 268.627 22.6296 265.629Z" fill="white"/>
<path d="M123.939 332.786C120.791 332.786 117.644 332.037 114.797 330.388L24.7278 277.921C22.7795 276.722 21.5806 274.624 21.5806 272.375C21.5806 270.126 22.7795 268.028 24.7278 266.829L255.22 132.515C257.768 131.016 260.616 130.266 263.463 130.266C266.31 130.266 269.158 131.016 271.706 132.515L362.674 185.431C364.622 186.63 365.821 188.729 365.821 190.977C365.821 193.226 364.622 195.324 362.674 196.524L133.08 330.388C130.233 332.037 127.086 332.786 123.939 332.786ZM263.463 127.418C260.166 127.418 256.719 128.318 253.722 129.966L23.2291 264.28L23.6787 264.88L23.9784 265.479L23.6787 264.88L23.2291 264.28C20.3817 265.929 18.5833 268.927 18.5833 272.375C18.5833 275.823 20.3817 278.821 23.2291 280.47L113.298 332.936C116.595 334.885 120.192 335.784 123.939 335.784C127.685 335.784 131.282 334.885 134.579 332.936L364.172 199.222C367.02 197.573 368.818 194.575 368.818 191.127C368.818 187.829 367.02 184.831 364.172 183.032L273.204 130.116C270.207 128.318 266.91 127.418 263.463 127.418Z" fill="url(#paint0_linear_113_930)"/>
<path d="M48.8561 258.734L237.386 149.754C240.983 147.655 245.329 147.655 248.776 149.754L337.796 201.021C338.995 201.77 338.995 203.419 337.796 204.169L150.165 313.748C146.568 315.847 142.222 315.847 138.625 313.748L48.7062 261.732C47.6571 261.132 47.6571 259.483 48.8561 258.734Z" fill="#171C51"/>
<path opacity="0.8" d="M306.474 183.032L67.5892 272.675L138.775 313.748H138.925C138.925 313.748 138.925 313.748 139.075 313.748C140.723 314.648 142.672 315.097 144.62 315.097C146.568 315.097 148.666 314.648 150.315 313.598L337.946 204.019C338.546 203.719 338.845 203.119 338.845 202.52C338.845 201.92 338.546 201.321 337.946 201.021L306.474 183.032Z" fill="#252D5F"/>
<path d="M324.158 231.002L286.692 252.588C284.894 253.637 282.496 252.288 282.496 250.189C282.496 249.14 283.095 248.24 283.845 247.791L321.311 226.205C323.109 225.155 325.507 226.504 325.507 228.603C325.507 229.652 324.908 230.552 324.158 231.002Z" fill="#AECADC"/>
<path opacity="0.8" d="M367.769 124.12L292.237 80.3484C290.888 79.5988 288.64 79.5988 287.292 80.3484L57.8479 212.863C57.0986 213.313 56.7989 213.763 56.7989 214.362V224.256C56.7989 224.706 57.0986 225.305 57.8479 225.755L133.53 269.377C134.879 270.126 137.127 270.126 138.475 269.377L367.769 137.012C368.369 136.562 368.818 136.113 368.818 135.663V125.769C368.818 125.02 368.518 124.42 367.769 124.12Z" fill="#171C51"/>
<g opacity="0.8">
<path d="M286.842 80.3484L57.8481 212.563C56.4994 213.313 56.4994 214.662 57.8481 215.412L133.38 259.034C134.729 259.783 136.977 259.783 138.326 259.034L367.32 126.818C368.669 126.069 368.669 124.72 367.32 123.97L291.788 80.3484C290.439 79.5988 288.191 79.5988 286.842 80.3484Z" fill="#171C51"/>
</g>
<path d="M319.363 96.0883L367.769 123.97C369.118 124.72 369.118 126.069 367.769 126.819L138.925 259.183C137.576 259.933 135.328 259.933 133.98 259.183L129.783 256.785C122.44 236.698 128.285 226.055 138.176 220.059C154.811 210.015 177.141 216.161 195.424 205.668C216.855 193.226 199.321 177.036 221.501 164.294C239.185 154.101 256.12 161.446 271.855 151.703C292.986 138.661 273.654 118.724 297.632 104.183C304.976 99.536 313.668 97.2875 319.363 96.0883Z" fill="#2EC6BA"/>
<path d="M154.661 250.039L154.211 250.339L124.988 233.55L125.587 233.25L154.661 250.039Z" fill="#F4F6FA"/>
<path d="M138.925 238.647L134.279 241.195L118.843 232.351L123.489 229.652L138.925 238.647Z" fill="#6F4AAB"/>
<path d="M172.645 239.696L172.195 239.996L135.928 219.009L136.527 218.859L172.645 239.696Z" fill="#F4F6FA"/>
<path d="M148.367 223.356L143.721 225.905L128.285 217.061L132.93 214.362L148.367 223.356Z" fill="#FF4E75"/>
<path d="M190.628 229.203L190.179 229.503L161.405 213.013L162.004 212.713L190.628 229.203Z" fill="#F4F6FA"/>
<path d="M174.443 217.51L169.797 220.208L154.361 211.214L159.007 208.666L174.443 217.51Z" fill="#6F4AAB"/>
<path d="M208.612 218.859L208.163 219.159L188.98 208.066L189.43 207.766L208.612 218.859Z" fill="#F4F6FA"/>
<path d="M203.217 213.313L198.571 216.011L183.135 207.167L187.781 204.469L203.217 213.313Z" fill="#6F4AAB"/>
<path d="M226.596 208.516L226.147 208.816L203.966 195.924L204.416 195.774L226.596 208.516Z" fill="#F4F6FA"/>
<path d="M217.904 201.021L213.258 203.719L197.822 194.875L202.468 192.176L217.904 201.021Z" fill="#6F4AAB"/>
<path d="M244.58 198.173L244.13 198.323L208.313 177.636L208.762 177.336L244.58 198.173Z" fill="#F4F6FA"/>
<path d="M221.201 182.133L216.555 184.831L201.119 175.987L205.765 173.289L221.201 182.133Z" fill="#6F4AAB"/>
<path d="M262.564 187.679L262.114 187.979L219.702 163.545L220.302 163.245L262.564 187.679Z" fill="#F4F6FA"/>
<path d="M231.392 167.292L226.896 169.991L211.46 161.146L215.956 158.448L231.392 167.292Z" fill="#FF4E75"/>
<path d="M280.548 177.336L280.098 177.636L245.03 157.399L245.479 157.099L280.548 177.336Z" fill="#F4F6FA"/>
<path d="M257.169 161.446L252.523 164.145L237.087 155.15L241.733 152.452L257.169 161.446Z" fill="#6F4AAB"/>
<path d="M298.532 166.993L298.082 167.292L270.507 151.253L270.956 150.953L298.532 166.993Z" fill="#F4F6FA"/>
<path d="M283.695 156.05L279.199 158.598L263.763 149.754L268.259 147.055L283.695 156.05Z" fill="#6F4AAB"/>
<path d="M316.515 156.499L316.066 156.799L280.997 136.562L281.597 136.262L316.515 156.499Z" fill="#F4F6FA"/>
<path d="M294.335 141.359L289.689 144.057L274.253 135.063L278.899 132.365L294.335 141.359Z" fill="#6F4AAB"/>
<path d="M334.499 146.156L334.049 146.456L280.398 115.426L280.847 115.126L334.499 146.156Z" fill="#F4F6FA"/>
<path d="M294.785 120.822L290.139 123.521L274.703 114.526L279.349 111.828L294.785 120.822Z" fill="#6F4AAB"/>
<path d="M352.483 135.813L352.033 136.113L296.583 104.033L297.183 103.733L352.483 135.813Z" fill="#F4F6FA"/>
<path d="M307.224 107.331L302.728 109.879L287.292 101.035L291.788 98.3368L307.224 107.331Z" fill="#FF4E75"/>
<path d="M198.871 152.452L200.52 156.05C200.669 156.499 201.269 156.649 201.719 156.499L206.364 153.801C207.114 153.351 206.964 152.302 206.065 152.152L199.77 151.253C199.171 151.103 198.571 151.852 198.871 152.452Z" fill="#2EC6BA"/>
<path d="M234.989 136.113L214.757 147.805C213.558 148.555 211.46 148.555 210.261 147.805C209.062 147.055 209.062 146.006 210.261 145.257L230.493 133.564C231.692 132.815 233.79 132.815 234.989 133.564C236.337 134.164 236.337 135.363 234.989 136.113Z" fill="#F4F6FA"/>
<path d="M90.3687 206.118L74.3331 215.412C72.8345 216.311 70.2868 216.311 68.6383 215.412C67.1396 214.512 67.1396 213.013 68.6383 212.114L84.6738 202.82C86.1725 201.92 88.7202 201.92 90.3687 202.82C91.8674 203.719 91.8674 205.218 90.3687 206.118Z" fill="#BCBECD"/>
<path d="M139.674 177.636L123.639 186.93C122.14 187.829 119.592 187.829 117.944 186.93C116.445 186.03 116.445 184.531 117.944 183.632L133.98 174.338C135.478 173.439 138.026 173.439 139.674 174.338C141.323 175.237 141.323 176.736 139.674 177.636Z" fill="#BCBECD"/>
<path d="M115.096 191.877L99.0609 201.171C97.5622 202.07 95.0145 202.07 93.366 201.171C91.8673 200.271 91.8673 198.772 93.366 197.873L109.402 188.579C110.9 187.679 113.448 187.679 115.096 188.579C116.595 189.478 116.595 190.977 115.096 191.877Z" fill="#FF4E75"/>
<path d="M95.7639 198.323L96.5132 197.873L99.2107 198.472L98.0118 196.973L98.7612 196.524L101.609 198.173L100.859 198.622L99.2107 197.723L100.26 199.072L99.6603 199.372L97.4124 198.772L99.0609 199.672L98.3116 200.121L95.7639 198.323Z" fill="#F4F6FA"/>
<path d="M103.557 197.123C102.808 197.573 101.609 197.573 100.709 197.123C99.8102 196.674 99.9601 195.924 100.709 195.474C101.459 195.025 102.658 195.025 103.557 195.474C104.306 195.924 104.306 196.674 103.557 197.123ZM102.808 196.674C103.257 196.374 103.257 196.074 102.808 195.774C102.358 195.474 101.758 195.474 101.309 195.774C100.859 196.074 100.859 196.374 101.309 196.674C101.758 196.973 102.358 196.973 102.808 196.674Z" fill="#F4F6FA"/>
<path d="M104.906 192.926L107.753 194.575L107.004 195.025L104.156 194.725L105.805 195.774L105.056 196.224L102.208 194.575L102.957 194.125L105.805 194.425L104.006 193.376L104.906 192.926Z" fill="#F4F6FA"/>
<path d="M105.355 192.776L107.453 191.577L108.053 191.877L107.303 192.326L109.551 193.676L108.802 194.125L106.554 192.776L105.805 193.226L105.355 192.776Z" fill="#F4F6FA"/>
<path d="M111.2 191.277L110.151 191.877L111.35 192.476L110.6 192.926L107.753 191.277L108.502 190.827L109.551 191.427L110.6 190.827L109.551 190.228L110.301 189.778L113.148 191.427L112.399 191.877L111.2 191.277Z" fill="#F4F6FA"/>
<path d="M73.1342 211.364L73.8835 210.914L75.5321 211.214L74.9326 210.165L75.6819 209.715L76.5811 211.364L77.4803 211.964L76.731 212.413L75.8318 211.814L73.1342 211.364Z" fill="#F4F6FA"/>
<path d="M78.2296 208.966L77.1805 209.565L77.78 209.865L78.6792 209.415L79.1288 209.715L78.2296 210.165L78.8291 210.465L79.8781 209.865L80.4776 210.165L78.8291 211.214L75.9816 209.565L77.6301 208.516L78.2296 208.966Z" fill="#F4F6FA"/>
<path d="M82.1261 208.816L81.0771 209.415L81.3768 209.865L80.6275 210.315L78.8291 208.066L79.5784 207.617L83.3251 208.666L82.5757 209.116L82.1261 208.816ZM80.1779 208.216L80.9272 208.966L81.6765 208.516L80.1779 208.216Z" fill="#F4F6FA"/>
<path d="M82.276 206.118C83.0253 205.668 83.6248 205.818 84.2243 205.968C84.524 206.118 84.6739 206.417 84.3741 206.717L86.1725 207.017L85.4232 207.467L83.7747 207.167L83.6248 207.317L84.6739 207.916L83.9245 208.366L81.0771 206.717L82.276 206.118ZM82.7256 206.417L82.276 206.717L83.0253 207.167L83.4749 206.867C83.7747 206.717 83.7747 206.567 83.4749 206.417C83.1752 206.267 83.0253 206.267 82.7256 206.417Z" fill="#F4F6FA"/>
<path d="M127.535 181.533C128.434 181.983 128.285 182.733 127.535 183.182L126.486 183.782L123.639 182.133L124.688 181.533C125.587 181.084 126.786 181.084 127.535 181.533ZM126.786 182.882C127.236 182.583 127.236 182.283 126.786 181.983C126.336 181.683 125.737 181.683 125.137 181.983L124.838 182.133L126.486 183.032L126.786 182.882Z" fill="#F4F6FA"/>
<path d="M130.533 180.784L129.484 181.383L129.783 181.833L129.034 182.283L127.236 180.034L127.985 179.585L131.731 180.634L130.982 181.084L130.533 180.784ZM128.434 180.184L129.184 180.934L129.933 180.484L128.434 180.184Z" fill="#F4F6FA"/>
<path d="M129.184 178.985L129.933 178.535L131.582 178.835L130.982 177.786L131.731 177.336L132.631 178.985L133.53 179.585L132.781 180.034L131.881 179.435L129.184 178.985Z" fill="#F4F6FA"/>
<path d="M234.989 136.113L214.757 147.805C213.558 148.555 211.46 148.555 210.261 147.805C209.062 147.056 209.062 146.006 210.261 145.257L230.493 133.564C231.692 132.815 233.79 132.815 234.989 133.564C236.337 134.164 236.337 135.363 234.989 136.113Z" fill="#F4F6FA"/>
<path d="M213.408 146.906C212.958 147.205 212.359 147.205 211.909 146.906C211.46 146.606 211.46 146.306 211.909 146.006L232.141 134.314C232.591 134.014 233.19 134.014 233.64 134.314C234.089 134.613 234.089 134.913 233.64 135.213L213.408 146.906Z" fill="#D2D6E3"/>
<path opacity="0.25" d="M367.32 62.9595L205.166 156.649C203.217 157.849 199.92 157.849 197.972 156.649L97.7123 98.7865C95.764 97.5873 95.764 95.7884 97.7123 94.5892L259.866 0.899422C261.815 -0.299807 265.112 -0.299807 267.06 0.899422L367.17 58.7622C369.418 59.9615 369.418 61.7603 367.32 62.9595Z" fill="#E2E5ED"/>
<path opacity="0.8" d="M368.818 60.711C368.668 59.9615 368.219 59.3619 367.32 58.7622L267.21 0.899422C265.261 -0.299807 261.964 -0.299807 260.016 0.899422L97.7121 94.5892C96.663 95.1888 96.2134 95.9383 96.2134 96.6879V108.081V108.53H96.3633C96.5132 109.13 96.9628 109.729 97.7121 110.179L197.822 168.042C199.77 169.241 203.067 169.241 205.016 168.042L367.17 74.3522C368.219 73.7526 368.668 73.0031 368.668 72.2536L368.818 60.711Z" fill="#171C51"/>
<path opacity="0.8" d="M367.32 62.9595L205.165 156.649C203.217 157.849 199.92 157.849 197.972 156.649L97.862 98.6366C95.9138 97.4374 95.9138 95.6385 97.862 94.4393L260.016 0.899422C261.964 -0.299807 265.261 -0.299807 267.21 0.899422L367.32 58.7622C369.418 59.8116 369.418 61.7603 367.32 62.9595Z" fill="#171C51"/>
<path opacity="0.25" d="M282.196 17.9884L356.679 61.0108C357.578 61.4605 357.578 62.3599 356.679 62.8096L204.866 150.503C203.966 150.953 202.618 150.953 201.719 150.503L170.247 132.365C180.887 120.672 191.078 114.676 199.021 111.378C202.768 109.879 211.909 105.982 217.604 99.2362C219.552 96.8377 220.901 93.9896 221.051 90.242C221.651 78.0998 218.354 74.5021 235.288 65.2081C252.223 55.914 255.22 50.0678 253.722 32.679C252.223 15.2902 282.196 17.9884 282.196 17.9884Z" fill="#E2E5ED"/>
<path d="M356.679 62.6597L342.892 70.6046L341.693 71.3541L312.019 88.4432L310.82 89.1927L281.447 106.132L280.098 106.881L250.275 124.12L249.076 124.87L219.403 141.959L218.204 142.708L204.866 150.353C203.966 150.803 202.618 150.803 201.719 150.353L198.272 148.255C201.269 143.608 205.016 139.86 208.612 137.162C209.062 136.862 209.362 136.562 209.811 136.262C212.059 134.613 214.307 133.414 216.255 132.215C223.749 128.318 228.544 126.669 232.441 125.17C235.888 123.82 238.435 122.771 241.283 120.073C241.433 119.923 241.583 119.773 241.882 119.623C242.032 119.473 242.182 119.323 242.332 119.173C246.828 114.676 247.128 110.329 247.278 106.132C247.427 101.185 247.577 96.5379 254.171 91.741C254.321 91.5911 254.621 91.4412 254.771 91.2913C254.921 91.1414 255.22 90.9915 255.37 90.8416C257.318 89.4925 259.566 88.2932 264.512 86.3445C274.253 82.7468 281.747 83.1965 290.289 77.2004C290.738 76.9006 291.038 76.6008 291.488 76.301C302.728 67.3067 294.035 54.8647 299.281 46.62C299.58 46.3202 299.73 45.8705 300.03 45.5707C301.229 44.2216 302.728 43.0223 304.976 41.973C309.771 39.7245 315.616 39.2748 319.363 39.1248L356.679 61.0108C357.578 61.4605 357.578 62.21 356.679 62.6597Z" fill="url(#paint1_linear_113_930)"/>
<path d="M219.253 142.109L218.054 142.858L208.612 137.312L181.786 121.872C181.487 121.722 181.337 121.272 181.487 120.972C181.637 120.672 182.086 120.523 182.386 120.672L209.661 136.412L218.953 141.809C219.103 141.809 219.253 141.959 219.253 142.109Z" fill="#F4F6FA"/>
<path d="M250.275 124.12L249.076 124.87L241.283 120.373L212.809 103.883C212.509 103.733 212.359 103.284 212.509 102.984C212.659 102.684 213.108 102.534 213.408 102.684L242.332 119.323L250.125 123.82C250.125 123.97 250.275 124.12 250.275 124.12Z" fill="#F4F6FA"/>
<path d="M311.869 88.5931L310.671 89.3426L290.439 77.6501L249.825 54.1152C249.526 53.9653 249.376 53.5156 249.526 53.2158C249.675 52.916 250.125 52.7661 250.425 52.916L291.488 76.6008L311.57 88.2933C311.72 88.4432 311.869 88.4432 311.869 88.5931Z" fill="#F4F6FA"/>
<path d="M342.892 70.7545L341.693 71.504L299.431 47.0697L258.068 23.0852C257.768 22.9353 257.618 22.4855 257.768 22.1857C257.918 21.8859 258.368 21.736 258.667 21.8859L300.18 45.8705L342.592 70.4547C342.742 70.4547 342.892 70.6046 342.892 70.7545Z" fill="#F4F6FA"/>
<path d="M262.714 25.0339C261.365 25.7834 259.117 25.7834 257.768 25.0339L253.872 22.7853C252.523 22.0358 252.523 20.6867 253.872 19.9372C255.22 19.1877 257.468 19.1877 258.817 19.9372L262.714 22.1857C264.062 22.9352 264.062 24.2844 262.714 25.0339Z" fill="#FF4E75"/>
<path d="M215.806 101.934C217.305 102.834 217.305 104.183 215.806 104.933C214.307 105.832 212.059 105.832 210.561 104.933C209.062 104.033 209.062 102.684 210.561 101.934C212.059 101.185 214.457 101.185 215.806 101.934Z" fill="#BCBECD"/>
<path d="M252.972 52.1664C254.471 53.0659 254.471 54.415 252.972 55.1645C251.474 56.0639 249.226 56.0639 247.727 55.1645C246.228 54.2651 246.228 52.916 247.727 52.1664C249.076 51.4169 251.474 51.4169 252.972 52.1664Z" fill="#BCBECD"/>
<path d="M186.432 123.82C185.083 124.57 182.835 124.57 181.487 123.82L177.59 121.572C176.241 120.822 176.241 119.473 177.59 118.724C178.939 117.974 181.187 117.974 182.536 118.724L186.432 120.972C187.931 121.722 187.931 123.071 186.432 123.82Z" fill="#6F4AAB"/>
<path d="M281.297 106.282L279.948 107.031L254.021 92.0408L223.299 74.3522C222.999 74.2023 222.85 73.7526 222.999 73.4528C223.149 73.153 223.599 73.0031 223.899 73.153L255.22 91.1414L280.847 105.982C281.147 106.132 281.147 106.132 281.297 106.282Z" fill="#F4F6FA"/>
<path d="M223.899 76.0011C225.968 76.0011 227.645 75.0615 227.645 73.9025C227.645 72.7434 225.968 71.8038 223.899 71.8038C221.829 71.8038 220.152 72.7434 220.152 73.9025C220.152 75.0615 221.829 76.0011 223.899 76.0011Z" fill="#BCBECD"/>
<path d="M179.239 110.329L171.296 114.976L169.048 113.777L176.991 109.13L179.239 110.329Z" fill="#6F4AAB"/>
<path d="M186.582 109.879L174.443 116.775L172.195 115.576L184.334 108.53L186.582 109.879Z" fill="#D2D6E3"/>
<path d="M217.904 65.8077L209.811 70.3048L207.713 69.1056L215.656 64.4586L217.904 65.8077Z" fill="#BCBECD"/>
<path d="M223.149 66.4073L211.01 73.3029L208.762 72.1036L220.901 65.0582L223.149 66.4073Z" fill="#D2D6E3"/>
<path d="M240.234 21.2863L248.177 16.6393L245.929 15.4401L237.986 19.9372L240.234 21.2863Z" fill="#FF4E75"/>
<path d="M239.335 25.4836L251.324 18.4382L249.226 17.2389L237.087 24.2844L239.335 25.4836Z" fill="#D2D6E3"/>
<path d="M120.192 141.509H115.396C106.854 130.716 88.1207 123.071 66.0905 122.921C43.6108 122.771 24.2782 130.416 15.586 141.509H10.7903V155.9C12.1391 172.539 35.6679 185.731 64.7418 186.03C94.2652 186.18 118.543 172.839 119.892 155.9H120.042V141.509H120.192Z" fill="#FEB160"/>
<path d="M1.19892 167.892C0.599461 167.292 0 166.393 0 165.644C0 159.048 0 152.602 0 146.006C0 145.257 0.599461 144.657 1.34879 144.657C2.09811 144.657 2.69757 145.257 2.69757 146.156C2.54771 153.202 2.54771 160.397 2.39784 167.442C2.39784 168.192 1.79838 168.492 1.19892 167.892Z" fill="#FF7C68"/>
<path d="M11.6895 175.537C10.9402 175.087 10.4906 173.888 10.4906 172.989C10.7903 164.144 11.2399 155.3 11.5396 146.456C11.5396 145.407 12.1391 144.657 12.8884 144.657C13.6377 144.657 14.2372 145.556 14.0873 146.606C13.6377 155.9 13.338 165.194 12.8884 174.488C12.8884 175.537 12.289 175.987 11.6895 175.537Z" fill="#FF7C68"/>
<path d="M22.7795 181.683C22.0302 181.383 21.5806 180.034 21.5806 178.835C22.0302 168.192 22.6297 157.549 23.0792 146.756C23.0792 145.556 23.8286 144.657 24.5779 144.657C25.3272 144.657 25.9267 145.706 25.7768 146.906C25.3272 157.998 24.7278 168.941 24.2782 180.034C24.1283 181.234 23.5288 181.983 22.7795 181.683Z" fill="#FF7C68"/>
<path d="M34.469 186.18C33.7197 185.881 33.1202 184.681 33.2701 183.332C33.7197 171.19 34.1693 159.198 34.7687 147.055C34.7687 145.706 35.518 144.657 36.1175 144.657C36.8668 144.657 37.4663 145.706 37.3164 147.205C36.8668 159.497 36.4172 171.939 35.9676 184.232C35.9676 185.581 35.2183 186.48 34.469 186.18Z" fill="#FF7C68"/>
<path d="M46.6081 189.328C45.8587 189.178 45.2593 187.829 45.2593 186.48C45.559 173.439 46.0086 160.397 46.3083 147.355C46.3083 145.856 46.9078 144.657 47.6571 144.657C48.4064 144.657 49.0059 145.856 48.856 147.355C48.5563 160.547 48.2566 173.738 47.9569 186.93C48.1067 188.429 47.3574 189.478 46.6081 189.328Z" fill="#FF7C68"/>
<path d="M58.897 190.827C58.1477 190.827 57.5482 189.478 57.5482 187.979C57.6981 174.488 57.8479 160.847 57.9978 147.355C57.9978 145.856 58.5973 144.657 59.3466 144.657C60.0959 144.657 60.6954 145.856 60.6954 147.355C60.5455 160.997 60.5455 174.488 60.3957 188.129C60.3957 189.778 59.6463 190.977 58.897 190.827Z" fill="#FF7C68"/>
<path d="M71.3359 190.977C70.5865 190.977 69.9871 189.778 69.8372 188.279C69.6873 174.638 69.6873 160.997 69.5375 147.505C69.5375 146.006 70.1369 144.807 70.8863 144.807C71.6356 144.807 72.235 146.006 72.235 147.505C72.3849 160.997 72.5348 174.638 72.6846 188.129C72.6846 189.628 72.0852 190.827 71.3359 190.977Z" fill="#FF7C68"/>
<path d="M83.6248 189.478C82.8754 189.628 82.1261 188.579 82.1261 187.08C81.8264 173.888 81.5267 160.697 81.2269 147.355C81.2269 145.856 81.8264 144.657 82.4258 144.657C83.1752 144.657 83.7746 145.856 83.7746 147.355C84.0744 160.397 84.524 173.439 84.8237 186.63C84.9736 187.979 84.3741 189.328 83.6248 189.478Z" fill="#FF7C68"/>
<path d="M95.7639 186.48C95.0146 186.78 94.4151 185.731 94.2652 184.381C93.8156 171.939 93.366 159.647 92.9164 147.205C92.9164 145.856 93.366 144.657 94.1154 144.657C94.8647 144.657 95.4642 145.706 95.4642 147.055C95.9137 159.198 96.3633 171.34 96.8129 183.482C97.1127 184.981 96.5132 186.18 95.7639 186.48Z" fill="#FF7C68"/>
<path d="M107.453 181.983C106.704 182.283 106.105 181.533 106.105 180.334C105.655 169.241 105.055 158.148 104.606 146.906C104.606 145.706 105.055 144.657 105.805 144.657C106.554 144.657 107.154 145.706 107.303 146.906C107.753 157.699 108.353 168.492 108.802 179.285C108.652 180.334 108.203 181.533 107.453 181.983Z" fill="#FF7C68"/>
<path d="M118.693 175.987C117.944 176.437 117.344 175.837 117.344 174.788C116.895 165.344 116.595 155.9 116.146 146.606C116.146 145.556 116.595 144.657 117.344 144.657C118.094 144.657 118.693 145.407 118.693 146.456C118.993 155.45 119.443 164.294 119.742 173.289C119.892 174.338 119.293 175.537 118.693 175.987Z" fill="#FF7C68"/>
<path d="M129.184 168.342C128.584 168.941 127.985 168.642 127.985 167.742C127.835 160.547 127.685 153.202 127.685 146.006C127.685 145.257 128.285 144.507 129.034 144.507C129.783 144.507 130.383 145.107 130.383 145.856C130.383 152.602 130.383 159.198 130.533 165.943C130.383 166.843 129.783 167.892 129.184 168.342Z" fill="#FF7C68"/>
<path d="M2.24799 168.642C1.94826 168.342 1.64853 167.892 1.64853 167.442C1.79839 160.247 1.79839 152.902 1.94826 145.706C1.94826 145.257 2.24799 144.957 2.54772 144.957C2.84745 144.957 3.14718 145.257 3.14718 145.706C2.99732 153.202 2.84745 160.847 2.69759 168.342C2.84745 168.642 2.69759 168.792 2.24799 168.642Z" fill="#F6C462"/>
<path d="M12.8884 175.987C12.5887 175.837 12.289 175.237 12.289 174.638C12.7386 165.044 13.0383 155.45 13.4879 146.006C13.4879 145.556 13.7876 145.107 14.2372 145.107C14.5369 145.107 14.8367 145.556 14.8367 146.006C14.3871 155.75 13.9375 165.644 13.4879 175.387C13.4879 175.837 13.1882 176.137 12.8884 175.987Z" fill="#F6C462"/>
<path d="M24.1283 181.833C23.8286 181.683 23.5288 181.084 23.5288 180.484C23.9784 169.091 24.5779 157.699 25.0275 146.306C25.0275 145.706 25.3272 145.257 25.7768 145.257C26.0765 145.257 26.3763 145.706 26.3763 146.456C25.9267 157.998 25.3272 169.691 24.8776 181.234C24.8776 181.533 24.5779 181.983 24.1283 181.833Z" fill="#F6C462"/>
<path d="M35.9677 186.18C35.5181 186.03 35.3682 185.431 35.3682 184.681C35.8178 171.939 36.2674 159.048 36.8669 146.306C36.8669 145.556 37.1666 145.107 37.6162 145.107C37.9159 145.107 38.2157 145.706 38.2157 146.306C37.7661 159.198 37.3165 172.089 36.8669 185.131C36.5671 185.881 36.2674 186.33 35.9677 186.18Z" fill="#F6C462"/>
<path d="M47.9569 189.028C47.5073 189.028 47.2075 188.279 47.3574 187.529C47.6571 173.888 47.9569 160.097 48.4065 146.456C48.4065 145.706 48.7062 145.107 49.1558 145.107C49.4555 145.107 49.7552 145.706 49.7552 146.456C49.4555 160.247 49.1558 174.038 48.8561 187.829C48.7062 188.579 48.4065 189.178 47.9569 189.028Z" fill="#F6C462"/>
<path d="M60.3957 190.378C59.9461 190.378 59.6464 189.778 59.6464 189.028C59.7962 174.938 59.9461 160.697 59.9461 146.606C59.9461 145.856 60.2458 145.257 60.5456 145.257C60.8453 145.257 61.145 145.856 61.145 146.606C60.9951 160.847 60.9951 174.938 60.8453 189.178C60.9951 189.928 60.6954 190.528 60.3957 190.378Z" fill="#F6C462"/>
<path d="M72.6846 190.378C72.235 190.378 71.9353 189.778 71.9353 189.028C71.7854 174.938 71.6356 160.697 71.4857 146.606C71.4857 145.856 71.7854 145.257 72.0852 145.257C72.3849 145.257 72.6846 145.856 72.8345 146.606C72.9844 160.697 73.1342 174.788 73.2841 188.879C73.434 189.628 73.1342 190.228 72.6846 190.378Z" fill="#F6C462"/>
<path d="M84.9736 188.729C84.524 188.879 84.2242 188.279 84.2242 187.529C83.9245 173.888 83.4749 160.247 83.1752 146.456C83.1752 145.706 83.4749 145.107 83.7746 145.107C84.0744 145.107 84.524 145.706 84.524 146.456C84.8237 160.097 85.2733 173.588 85.573 187.23C85.7229 187.979 85.4232 188.579 84.9736 188.729Z" fill="#F6C462"/>
<path d="M97.1127 185.581C96.6631 185.731 96.3633 185.281 96.3633 184.531C95.9137 171.79 95.3143 159.048 94.8647 146.306C94.8647 145.556 95.1644 145.107 95.4641 145.107C95.7639 145.107 96.2135 145.706 96.2135 146.306C96.6631 158.898 97.2625 171.49 97.7121 184.082C97.7121 184.831 97.4124 185.431 97.1127 185.581Z" fill="#F6C462"/>
<path d="M108.802 180.934C108.502 181.084 108.053 180.784 108.053 180.184C107.603 168.791 107.004 157.549 106.554 146.156C106.554 145.556 106.854 145.107 107.154 145.107C107.453 145.107 107.903 145.556 107.903 146.156C108.353 157.249 108.952 168.342 109.402 179.585C109.402 180.184 109.102 180.784 108.802 180.934Z" fill="#F6C462"/>
<path d="M119.892 174.788C119.592 174.938 119.293 174.788 119.293 174.188C118.843 164.744 118.543 155.3 118.094 145.856C118.094 145.407 118.394 144.957 118.693 144.957C118.993 144.957 119.443 145.407 119.443 145.856C119.742 155 120.192 164.294 120.492 173.439C120.492 174.038 120.192 174.638 119.892 174.788Z" fill="#F6C462"/>
<path d="M130.383 167.143C130.083 167.442 129.783 167.292 129.783 166.993C129.783 159.947 129.633 152.752 129.633 145.706C129.633 145.257 129.933 144.957 130.233 144.957C130.533 144.957 130.832 145.257 130.832 145.556C130.832 152.302 130.832 159.198 130.832 165.943C130.982 166.393 130.682 166.843 130.383 167.143Z" fill="#F6C462"/>
<path d="M65.4911 174.788C95.7015 174.788 120.192 160.627 120.192 143.158C120.192 125.689 95.7015 111.528 65.4911 111.528C35.2807 111.528 10.7903 125.689 10.7903 143.158C10.7903 160.627 35.2807 174.788 65.4911 174.788Z" fill="#F6C462"/>
<path d="M104.156 143.458C104.006 147.955 101.609 152.152 97.5622 155.75C90.5186 161.746 78.5294 165.644 65.1914 165.644C43.9105 165.494 26.676 155.45 26.9757 143.008C26.9757 139.71 28.3245 136.412 30.7224 133.564C37.0167 126.069 50.5046 120.822 65.9407 120.972C87.2215 120.972 104.306 131.016 104.156 143.458Z" fill="#FF7C68"/>
<path d="M101.309 146.306C101.309 149.604 99.9601 152.902 97.5623 155.75C90.5186 161.746 78.5294 165.644 65.1914 165.644C43.9105 165.494 26.676 155.45 26.9757 143.008C26.9757 139.71 28.3245 136.412 30.7224 133.564C37.766 127.568 49.7553 123.67 63.2431 123.82C84.3741 123.82 101.459 133.864 101.309 146.306Z" fill="#FF7C68"/>
<path d="M69.0879 154.101C66.69 154.101 64.2922 153.501 61.7445 152.002L60.6954 151.403L67.7391 147.355L68.4884 147.805C69.6873 148.554 70.7364 148.854 71.4857 148.854C72.3849 148.854 73.1342 148.704 73.8836 148.255C74.6329 147.805 74.9326 147.355 74.9326 146.906C74.7827 146.456 74.483 145.856 73.7337 145.556C72.8345 145.107 71.9353 144.807 70.7364 144.807C69.6873 144.807 68.4884 144.957 67.2895 145.257C66.0906 145.556 64.7418 145.856 63.393 146.156C62.0442 146.456 60.5456 146.756 59.1968 146.906C57.6981 147.055 56.1995 146.906 54.7008 146.756C53.2022 146.456 51.5536 145.856 50.055 144.957C45.2593 142.109 44.8097 139.111 48.8561 135.963L46.6081 134.613L50.2049 132.515L52.4528 133.864C55.3003 132.515 57.9978 131.915 60.5456 132.065C63.0933 132.215 65.641 132.965 68.1887 134.613L61.2949 138.511L60.6954 138.211C59.9461 137.761 59.0469 137.462 58.1477 137.312C57.2485 137.162 56.3493 137.312 55.7499 137.761C55.0005 138.211 54.7008 138.661 54.7008 139.111C54.8507 139.56 55.1504 140.01 55.7499 140.46C56.6491 141.059 57.6981 141.209 58.7472 141.209C59.7962 141.209 60.9951 141.059 62.3439 140.76C63.5429 140.46 64.8916 140.16 66.2404 139.71C67.5892 139.41 69.0879 139.111 70.5865 138.961C72.0852 138.811 73.5838 138.811 75.2323 139.111C76.8809 139.41 78.5294 140.01 80.1779 140.909C82.7256 142.408 84.0744 144.057 83.9245 145.556C83.7747 147.055 82.5757 148.704 80.028 150.353L83.4749 152.452L79.8782 154.551L76.4313 152.452C74.0334 153.351 71.4857 153.951 69.0879 154.101Z" fill="#F6C462"/>
<path d="M117.794 146.156C116.445 146.906 114.497 147.505 112.249 147.505C107.903 147.505 104.156 145.556 104.156 143.008C104.006 131.016 86.7719 120.972 65.9407 120.822C61.5946 120.822 57.9978 118.724 57.9978 116.175C57.9978 113.627 61.5946 111.528 66.0905 111.678C80.4776 111.828 93.9655 115.126 104.156 120.972C114.347 126.818 120.042 134.613 120.192 143.008C120.192 144.207 119.293 145.407 117.794 146.156Z" fill="#F6C462"/>
<path d="M71.6356 119.473C70.1369 120.373 68.1887 120.822 65.9407 120.822C61.145 120.822 56.3493 121.272 52.0032 122.171C47.807 123.071 43.311 121.872 41.6625 119.473C40.1639 117.075 42.262 114.376 46.3083 113.477C52.6027 112.128 59.3466 111.378 66.0905 111.528C70.4366 111.528 74.0334 113.627 74.0334 116.175C73.8835 117.524 72.9843 118.724 71.6356 119.473Z" fill="#FFD383"/>
<path d="M89.9191 164.594C93.0663 166.393 93.0663 169.241 89.9191 171.04C86.7719 172.839 81.8264 172.839 78.6792 171.04C75.5321 169.241 75.5321 166.393 78.6792 164.594C81.6765 162.795 86.7719 162.795 89.9191 164.594Z" fill="#FFD383"/>
<path d="M71.7855 166.843C70.2868 165.943 68.3386 165.494 66.0906 165.494C61.2949 165.494 56.4992 165.044 52.1531 164.145C47.9569 163.245 43.4609 164.444 41.8124 166.843C40.3138 169.241 42.4119 171.94 46.4582 172.839C52.7526 174.188 59.4965 174.938 66.2404 174.788C70.5865 174.788 74.1833 172.689 74.1833 170.141C74.0334 168.792 73.1343 167.742 71.7855 166.843Z" fill="#FFD383"/>
<path d="M383.655 174.638L363.573 156.35V152.452L356.23 149.754L331.352 204.918L338.695 207.467L339.744 206.867V234.299V239.846V260.233L347.088 262.781V255.886L364.622 245.842L375.262 239.696V179.585L383.655 174.638Z" fill="#E5285D"/>
<path d="M363.573 152.452L390.998 177.336L382.606 182.133V242.244L371.965 248.54L347.088 262.781V242.544V236.998V202.67L338.695 207.467L363.573 152.452Z" fill="#FF4E75"/>
<path d="M238.136 387.051L325.807 336.384C330.153 333.835 330.153 329.788 325.807 327.24L277.251 299.208C272.905 296.659 265.711 296.659 261.365 299.208L173.694 349.875C169.348 352.424 169.348 356.471 173.694 359.019L222.25 387.051C226.596 389.6 233.64 389.6 238.136 387.051Z" fill="#1E293B"/>
<path d="M329.104 302.356L322.06 303.255L277.251 277.322C272.904 274.773 265.711 274.773 261.365 277.322L183.435 322.293L170.397 324.092V332.037C170.097 333.835 171.296 335.634 173.694 337.133L222.25 365.165C226.596 367.714 233.79 367.714 238.136 365.165L325.807 314.498C328.055 313.149 329.104 311.5 329.104 309.851V302.356Z" fill="#CCDEEC"/>
<path d="M238.136 357.67L325.807 307.003C330.153 304.454 330.153 300.407 325.807 297.859L277.251 269.677C272.905 267.128 265.711 267.128 261.365 269.677L173.694 320.344C169.348 322.892 169.348 326.94 173.694 329.488L222.25 357.52C226.596 360.218 233.64 360.219 238.136 357.67Z" fill="white"/>
<path d="M304.226 305.204L311.72 300.857L284.144 284.967L276.651 289.314L304.226 305.204Z" fill="#FF4E75"/>
<path d="M293.286 311.5L300.779 307.153L276.351 293.062L268.858 297.409L293.286 311.5Z" fill="#FF4E75"/>
<path d="M282.346 317.796L289.839 313.449L269.907 302.056L262.414 306.403L282.346 317.796Z" fill="#FF4E75"/>
<path d="M271.406 324.092L278.749 319.894L254.471 305.803L246.978 310.001L271.406 324.092Z" fill="#FF4E75"/>
<path d="M260.316 330.538L267.809 326.19L238.436 309.251L230.942 313.449L260.316 330.538Z" fill="#FF4E75"/>
<path d="M249.376 336.834L256.869 332.486L221.201 311.8L213.708 316.147L249.376 336.834Z" fill="#FF4E75"/>
<path d="M238.436 343.129L245.929 338.782L218.354 322.892L210.86 327.24L238.436 343.129Z" fill="#FF4E75"/>
<path d="M227.495 349.425L234.989 345.078L212.359 332.037L204.866 336.384L227.495 349.425Z" fill="#FF4E75"/>
<path d="M175.192 378.657C176.841 379.556 176.841 381.055 175.192 381.955L164.702 388.101C163.053 389 160.506 389 158.857 388.101L148.367 381.955C146.718 381.055 146.718 379.556 148.367 378.657L158.857 372.511C160.506 371.611 163.053 371.611 164.702 372.511L175.192 378.657Z" fill="#1E293B"/>
<path d="M39.7143 53.6655C34.1693 56.8135 34.1693 61.9102 39.7143 65.2081L75.3822 85.8948C80.7774 89.0428 89.7693 89.0428 95.1644 85.8948L130.982 65.2081C136.527 62.0601 136.527 56.9634 130.982 53.6655L95.3143 32.9788C89.9191 29.8308 80.9272 29.8308 75.5321 32.9788L39.7143 53.6655Z" fill="#7FD1CC"/>
<path d="M85.1235 57.1133L76.1316 71.5041C72.6847 70.7545 69.2378 69.5553 66.3903 67.9064C63.9925 66.5572 62.1941 64.9083 60.9952 63.2594L85.1235 57.1133Z" fill="#FF4E75"/>
<path d="M103.707 46.1703C114.047 52.1665 114.047 61.9102 103.857 67.7565C96.3634 72.1037 85.5731 73.3029 76.1316 71.3541L85.1235 56.9634L60.9952 63.1094C56.6491 57.563 58.4475 50.6674 66.3903 46.0204C76.731 40.3241 93.3661 40.3241 103.707 46.1703Z" fill="white"/>
<path d="M47.9569 232.201C50.5046 233.7 50.5046 235.948 47.9569 237.447L31.9213 246.741C29.5234 248.24 25.4771 248.24 22.9294 246.741L6.74392 237.447C4.34608 235.948 4.19622 233.7 6.74392 232.201L22.7795 222.907C25.1773 221.408 29.2237 221.408 31.7714 222.907L47.9569 232.201Z" fill="#7FD1CC"/>
<path d="M165.301 42.7225C166.95 43.622 166.95 45.121 165.301 46.0204L154.811 52.1665C153.162 53.0659 150.615 53.0659 148.966 52.1665L138.475 46.0204C136.827 45.121 136.827 43.622 138.475 42.7225L148.966 36.5765C150.615 35.6771 153.162 35.6771 154.811 36.5765L165.301 42.7225Z" fill="#7FD1CC"/>
<path d="M344.84 277.771C346.488 278.671 346.488 280.17 344.84 281.069L334.349 287.215C332.701 288.115 330.153 288.115 328.505 287.215L318.014 281.069C316.365 280.17 316.365 278.671 318.014 277.771L328.505 271.625C330.153 270.726 332.701 270.726 334.349 271.625L344.84 277.771Z" fill="#1E293B"/>
<path d="M367.619 96.6879C369.268 97.5873 369.268 99.0863 367.619 99.9857L357.129 106.132C355.48 107.031 352.933 107.031 351.284 106.132L340.793 99.9857C339.145 99.0863 339.145 97.5873 340.793 96.6879L351.284 90.5418C352.933 89.6424 355.48 89.6424 357.129 90.5418L367.619 96.6879Z" fill="#7FD1CC"/>
</g>
<defs>
<linearGradient id="paint0_linear_113_930" x1="371.03" y1="188.807" x2="-92.9513" y2="300.692" gradientUnits="userSpaceOnUse">
<stop stop-color="#C7D3E5"/>
<stop offset="0.3307" stop-color="#DCE7F1"/>
<stop offset="0.7277" stop-color="#F0F9FB"/>
<stop offset="1" stop-color="#F7FFFF"/>
</linearGradient>
<linearGradient id="paint1_linear_113_930" x1="277.748" y1="31.4505" x2="277.748" y2="179.95" gradientUnits="userSpaceOnUse">
<stop stop-color="#2EC6BA"/>
<stop offset="0.4238" stop-color="#25B6B2"/>
<stop offset="1" stop-color="#1499A3"/>
</linearGradient>
<clipPath id="clip0_113_930">
<rect width="390.998" height="389" fill="white"/>
</clipPath>
</defs>
</svg>
