<svg width="17" height="17" viewBox="0 0 17 17" fill="none" xmlns="http://www.w3.org/2000/svg">
<path d="M13.8125 15.9375H7.4375C7.15571 15.9375 6.88546 15.8256 6.6862 15.6263C6.48694 15.427 6.375 15.1568 6.375 14.875V13.2812H7.4375V14.875H13.8125V2.125H7.4375V3.71875H6.375V2.125C6.375 1.84321 6.48694 1.57296 6.6862 1.3737C6.88546 1.17444 7.15571 1.0625 7.4375 1.0625H13.8125C14.0943 1.0625 14.3645 1.17444 14.5638 1.3737C14.7631 1.57296 14.875 1.84321 14.875 2.125V14.875C14.875 15.1568 14.7631 15.427 14.5638 15.6263C14.3645 15.8256 14.0943 15.9375 13.8125 15.9375Z" fill="white"/>
<path d="M7.75094 10.9384L9.65281 9.03125H2.125V7.96875H9.65281L7.75094 6.06156L8.5 5.3125L11.6875 8.5L8.5 11.6875L7.75094 10.9384Z" fill="white"/>
</svg>
