<svg width="24" height="24" viewBox="0 0 24 24" fill="none" xmlns="http://www.w3.org/2000/svg">
<path d="M16.875 4.30499L16.125 5.60249C17.6978 6.51055 18.927 7.9122 19.622 9.59006C20.317 11.2679 20.4389 13.1282 19.9689 14.8825C19.4988 16.6367 18.4631 18.1868 17.0223 19.2924C15.5815 20.3979 13.8161 20.9972 12 20.9972C10.1839 20.9972 8.41854 20.3979 6.97772 19.2924C5.53691 18.1868 4.50116 16.6367 4.03112 14.8825C3.56107 13.1282 3.683 11.2679 4.378 9.59006C5.07299 7.9122 6.30221 6.51055 7.875 5.60249L7.125 4.30499C5.26625 5.37815 3.81353 7.03465 2.99218 9.01758C2.17082 11.0005 2.02672 13.1991 2.58223 15.2722C3.13773 17.3454 4.3618 19.1773 6.06458 20.4839C7.76736 21.7905 9.85369 22.4987 12 22.4987C14.1463 22.4987 16.2326 21.7905 17.9354 20.4839C19.6382 19.1773 20.8623 17.3454 21.4178 15.2722C21.9733 13.1991 21.8292 11.0005 21.0078 9.01758C20.1865 7.03465 18.7338 5.37815 16.875 4.30499Z" fill="#94A3B8"/>
<path d="M11.25 1.5H12.75V12H11.25V1.5Z" fill="#94A3B8"/>
</svg>
