<svg width="18" height="18" viewBox="0 0 18 18" fill="none" xmlns="http://www.w3.org/2000/svg">
<path d="M16.7102 10.8523L15.0227 9.16481C14.9172 9.05936 14.7742 9.00012 14.625 9.00012C14.4758 9.00012 14.3328 9.05936 14.2273 9.16481L9 14.3921V16.875H11.4829L16.7102 11.6477C16.8156 11.5422 16.8749 11.3992 16.8749 11.25C16.8749 11.1008 16.8156 10.9578 16.7102 10.8523ZM11.0171 15.75H10.125V14.8579L12.9375 12.0454L13.8296 12.9375L11.0171 15.75ZM14.625 12.1421L13.7329 11.25L14.625 10.3579L15.5171 11.25L14.625 12.1421ZM16.875 2.25H12.9375V3.375H14.9546L10.6875 7.64213L8.27269 5.22731C8.1672 5.12186 8.02415 5.06262 7.875 5.06262C7.72585 5.06262 7.5828 5.12186 7.47731 5.22731L3.375 9.32963L4.17038 10.125L7.875 6.42037L10.2898 8.83519C10.3953 8.94064 10.5383 8.99988 10.6875 8.99988C10.8367 8.99988 10.9797 8.94064 11.0852 8.83519L15.75 4.17038V6.1875H16.875V2.25Z" fill="#94A3B8"/>
<path d="M2.25 1.125H1.125V15.75C1.125 16.0484 1.24353 16.3345 1.4545 16.5455C1.66548 16.7565 1.95163 16.875 2.25 16.875H6.75V15.75H2.25V1.125Z" fill="#94A3B8"/>
</svg>
