<svg width="17" height="17" viewBox="0 0 17 17" fill="none" xmlns="http://www.w3.org/2000/svg">
<path d="M3.59125 3.18751L3.83031 3.66033L4.1225 4.25001H6.375V6.90626H2.125V3.18751H3.59125ZM3.92062 2.12501H1.59375C1.45285 2.12501 1.31773 2.18098 1.2181 2.28061C1.11847 2.38024 1.0625 2.51537 1.0625 2.65626V7.43751C1.0625 7.57841 1.11847 7.71353 1.2181 7.81316C1.31773 7.91279 1.45285 7.96876 1.59375 7.96876H6.90625C7.04715 7.96876 7.18227 7.91279 7.2819 7.81316C7.38153 7.71353 7.4375 7.57841 7.4375 7.43751V3.71876C7.4375 3.57787 7.38153 3.44274 7.2819 3.34311C7.18227 3.24348 7.04715 3.18751 6.90625 3.18751H4.78125L4.39875 2.4172C4.3542 2.32878 4.28582 2.25457 4.20134 2.20294C4.11686 2.15132 4.01963 2.12432 3.92062 2.12501ZM12.0913 3.18751L12.3303 3.66033L12.6225 4.25001H14.875V6.90626H10.625V3.18751H12.0913ZM12.4206 2.12501H10.0938C9.95285 2.12501 9.81773 2.18098 9.7181 2.28061C9.61847 2.38024 9.5625 2.51537 9.5625 2.65626V7.43751C9.5625 7.57841 9.61847 7.71353 9.7181 7.81316C9.81773 7.91279 9.95285 7.96876 10.0938 7.96876H15.4062C15.5471 7.96876 15.6823 7.91279 15.7819 7.81316C15.8815 7.71353 15.9375 7.57841 15.9375 7.43751V3.71876C15.9375 3.57787 15.8815 3.44274 15.7819 3.34311C15.6823 3.24348 15.5471 3.18751 15.4062 3.18751H13.2812L12.8988 2.4172C12.8542 2.32878 12.7858 2.25457 12.7013 2.20294C12.6169 2.15132 12.5196 2.12432 12.4206 2.12501ZM3.59125 10.0938L3.83031 10.5666L4.1225 11.1563H6.375V13.8125H2.125V10.0938H3.59125ZM3.92062 9.03126H1.59375C1.45285 9.03126 1.31773 9.08723 1.2181 9.18686C1.11847 9.28649 1.0625 9.42162 1.0625 9.56251V14.3438C1.0625 14.4847 1.11847 14.6198 1.2181 14.7194C1.31773 14.819 1.45285 14.875 1.59375 14.875H6.90625C7.04715 14.875 7.18227 14.819 7.2819 14.7194C7.38153 14.6198 7.4375 14.4847 7.4375 14.3438V10.625C7.4375 10.4841 7.38153 10.349 7.2819 10.2494C7.18227 10.1497 7.04715 10.0938 6.90625 10.0938H4.78125L4.39875 9.32345C4.3542 9.23503 4.28582 9.16082 4.20134 9.10919C4.11686 9.05757 4.01963 9.03057 3.92062 9.03126ZM12.0913 10.0938L12.3303 10.5666L12.6225 11.1563H14.875V13.8125H10.625V10.0938H12.0913ZM12.4206 9.03126H10.0938C9.95285 9.03126 9.81773 9.08723 9.7181 9.18686C9.61847 9.28649 9.5625 9.42162 9.5625 9.56251V14.3438C9.5625 14.4847 9.61847 14.6198 9.7181 14.7194C9.81773 14.819 9.95285 14.875 10.0938 14.875H15.4062C15.5471 14.875 15.6823 14.819 15.7819 14.7194C15.8815 14.6198 15.9375 14.4847 15.9375 14.3438V10.625C15.9375 10.4841 15.8815 10.349 15.7819 10.2494C15.6823 10.1497 15.5471 10.0938 15.4062 10.0938H13.2812L12.8988 9.32345C12.8542 9.23503 12.7858 9.16082 12.7013 9.10919C12.6169 9.05757 12.5196 9.03057 12.4206 9.03126Z" fill="#94A3B8"/>
</svg>
