<svg width="21" height="21" viewBox="0 0 21 21" fill="none" xmlns="http://www.w3.org/2000/svg">
<path d="M19.6875 6.5625V5.25H18.3087C18.2241 4.8392 18.061 4.44859 17.8283 4.09959L18.8062 3.12178L17.8782 2.19384L16.9004 3.17166C16.5514 2.93902 16.1608 2.77592 15.75 2.69128V1.3125H14.4375V2.69128C14.0267 2.77592 13.6361 2.93902 13.2871 3.17166L12.3093 2.19384L11.3813 3.12178L12.3592 4.09959C12.1265 4.44859 11.9634 4.8392 11.8788 5.25H10.5V6.5625H11.8788C11.9634 6.9733 12.1265 7.36391 12.3592 7.71291L11.3813 8.69072L12.3093 9.61866L13.2871 8.64084C13.6361 8.87348 14.0267 9.03658 14.4375 9.12122V10.5H15.75V9.12122C16.1608 9.03658 16.5514 8.87348 16.9004 8.64084L17.8782 9.61866L18.8062 8.69072L17.8283 7.71291C18.061 7.36391 18.2241 6.9733 18.3087 6.5625H19.6875ZM15.0938 7.875C14.7044 7.875 14.3237 7.75953 14 7.54321C13.6762 7.32688 13.4239 7.0194 13.2749 6.65966C13.1259 6.29992 13.0869 5.90407 13.1628 5.52217C13.2388 5.14027 13.4263 4.78947 13.7016 4.51413C13.977 4.2388 14.3278 4.05129 14.7097 3.97533C15.0916 3.89936 15.4874 3.93835 15.8472 4.08736C16.2069 4.23637 16.5144 4.48871 16.7307 4.81247C16.947 5.13623 17.0625 5.51687 17.0625 5.90625C17.062 6.42824 16.8544 6.92869 16.4853 7.29779C16.1162 7.66689 15.6157 7.87448 15.0938 7.875ZM10.5 19.6875H9.1875V16.4062C9.18698 15.8843 8.97939 15.3838 8.61029 15.0147C8.24119 14.6456 7.74074 14.438 7.21875 14.4375H4.59375C4.07176 14.438 3.57131 14.6456 3.20221 15.0147C2.83311 15.3838 2.62552 15.8843 2.625 16.4062V19.6875H1.3125V16.4062C1.31354 15.5363 1.65958 14.7023 2.27471 14.0872C2.88983 13.4721 3.72383 13.126 4.59375 13.125H7.21875C8.08867 13.126 8.92267 13.4721 9.53779 14.0872C10.1529 14.7023 10.499 15.5363 10.5 16.4062V19.6875ZM5.90625 6.5625C6.29563 6.5625 6.67627 6.67797 7.00003 6.89429C7.32379 7.11062 7.57613 7.4181 7.72514 7.77784C7.87415 8.13758 7.91314 8.53343 7.83717 8.91533C7.76121 9.29723 7.5737 9.64803 7.29837 9.92337C7.02303 10.1987 6.67223 10.3862 6.29033 10.4622C5.90843 10.5381 5.51258 10.4991 5.15284 10.3501C4.7931 10.2011 4.48562 9.94879 4.26929 9.62503C4.05297 9.30127 3.9375 8.92063 3.9375 8.53125C3.9375 8.00911 4.14492 7.50835 4.51413 7.13913C4.88335 6.76992 5.38411 6.5625 5.90625 6.5625ZM5.90625 5.25C5.25728 5.25 4.62288 5.44244 4.08329 5.80299C3.54369 6.16354 3.12312 6.676 2.87477 7.27557C2.62642 7.87514 2.56144 8.53489 2.68805 9.17139C2.81466 9.80789 3.12716 10.3926 3.58606 10.8514C4.04495 11.3103 4.62961 11.6228 5.26611 11.7495C5.90261 11.8761 6.56236 11.8111 7.16193 11.5627C7.7615 11.3144 8.27396 10.8938 8.63451 10.3542C8.99506 9.81462 9.1875 9.18022 9.1875 8.53125C9.1875 8.10035 9.10263 7.67367 8.93773 7.27557C8.77283 6.87747 8.53114 6.51575 8.22644 6.21106C7.92175 5.90636 7.56003 5.66467 7.16193 5.49977C6.76383 5.33487 6.33715 5.25 5.90625 5.25Z" fill="#94A3B8"/>
</svg>
