<svg width="16" height="22" viewBox="0 0 16 22" fill="none" xmlns="http://www.w3.org/2000/svg">
<path d="M8 2C8.74168 2 9.4667 2.21993 10.0834 2.63199C10.7001 3.04404 11.1807 3.62971 11.4645 4.31494C11.7484 5.00016 11.8226 5.75416 11.6779 6.48159C11.5333 7.20902 11.1761 7.8772 10.6517 8.40165C10.1272 8.9261 9.45902 9.28325 8.73159 9.42795C8.00416 9.57264 7.25016 9.49838 6.56494 9.21455C5.87971 8.93072 5.29404 8.45007 4.88199 7.83339C4.46993 7.2167 4.25 6.49168 4.25 5.75C4.25 4.75544 4.64509 3.80161 5.34835 3.09835C6.05161 2.39509 7.00544 2 8 2ZM8 0.5C6.96165 0.5 5.94661 0.807907 5.08326 1.38478C4.2199 1.96166 3.54699 2.7816 3.14963 3.74091C2.75227 4.70022 2.64831 5.75582 2.85088 6.77422C3.05345 7.79262 3.55346 8.72808 4.28769 9.46231C5.02192 10.1965 5.95738 10.6966 6.97578 10.8991C7.99418 11.1017 9.04978 10.9977 10.0091 10.6004C10.9684 10.203 11.7883 9.5301 12.3652 8.66674C12.9421 7.80339 13.25 6.78835 13.25 5.75C13.25 4.35761 12.6969 3.02226 11.7123 2.03769C10.7277 1.05312 9.39239 0.5 8 0.5ZM15.5 21.5H14V17.75C14 17.2575 13.903 16.7699 13.7145 16.3149C13.5261 15.86 13.2499 15.4466 12.9017 15.0983C12.5534 14.7501 12.14 14.4739 11.6851 14.2855C11.2301 14.097 10.7425 14 10.25 14H5.75C4.75544 14 3.80161 14.3951 3.09835 15.0983C2.39509 15.8016 2 16.7554 2 17.75V21.5H0.5V17.75C0.5 16.3576 1.05312 15.0223 2.03769 14.0377C3.02226 13.0531 4.35761 12.5 5.75 12.5H10.25C11.6424 12.5 12.9777 13.0531 13.9623 14.0377C14.9469 15.0223 15.5 16.3576 15.5 17.75V21.5Z" fill="white"/>
</svg>
